<svg width="14" height="12" viewBox="0 0 14 12" fill="none" xmlns="http://www.w3.org/2000/svg">
<path d="M9.79998 0.400024C10.3078 0.399946 10.7965 0.593011 11.1672 0.940056C11.5379 1.2871 11.7627 1.76214 11.796 2.26882L11.8 2.40002V4.44002C12.2286 4.5277 12.6168 4.75347 12.9049 5.08276C13.193 5.41205 13.3652 5.82671 13.3952 6.26323L13.4 6.40002V11.2C13.4002 11.3 13.3629 11.3964 13.2956 11.4703C13.2282 11.5441 13.1357 11.5901 13.0361 11.5991C12.9366 11.6082 12.8372 11.5796 12.7577 11.519C12.6782 11.4585 12.6242 11.3704 12.6064 11.272L12.6 11.2V9.20002H1.39998V11.2C1.40016 11.3 1.36291 11.3964 1.29557 11.4703C1.22823 11.5441 1.13567 11.5901 1.03612 11.5991C0.93657 11.6082 0.837248 11.5796 0.75771 11.519C0.678173 11.4585 0.624184 11.3704 0.606376 11.272L0.599976 11.2V6.40002C0.599882 5.93896 0.759089 5.49203 1.05065 5.13486C1.34222 4.7777 1.74823 4.53224 2.19998 4.44002V2.40002C2.1999 1.89225 2.39296 1.40346 2.74001 1.03279C3.08705 0.662121 3.56209 0.437335 4.06878 0.404025L4.19998 0.400024H9.79998ZM11.4 5.20002H2.59998C2.30179 5.20002 2.01429 5.31103 1.79349 5.51142C1.57269 5.71182 1.4344 5.98724 1.40558 6.28402L1.39998 6.40002V8.40002H12.6V6.40002C12.6 6.10184 12.489 5.81434 12.2886 5.59354C12.0882 5.37274 11.8128 5.23445 11.516 5.20562L11.4 5.20002ZM9.79998 1.20002H4.19998C3.90167 1.20004 3.61406 1.31116 3.39324 1.51172C3.17242 1.71228 3.03421 1.9879 3.00558 2.28482L2.99998 2.40002V4.40002H3.79998V4.00002C3.79998 3.89394 3.84212 3.7922 3.91713 3.71718C3.99215 3.64217 4.09389 3.60002 4.19998 3.60002H6.19998C6.30606 3.60002 6.4078 3.64217 6.48282 3.71718C6.55783 3.7922 6.59998 3.89394 6.59998 4.00002V4.40002H7.39998V4.00002C7.39998 3.89394 7.44212 3.7922 7.51713 3.71718C7.59215 3.64217 7.69389 3.60002 7.79998 3.60002H9.79998C9.90606 3.60002 10.0078 3.64217 10.0828 3.71718C10.1578 3.7922 10.2 3.89394 10.2 4.00002V4.40002H11V2.40002C11 2.10184 10.889 1.81434 10.6886 1.59354C10.4882 1.37274 10.2128 1.23445 9.91598 1.20562L9.79998 1.20002Z" fill="#FFFBFB" fill-opacity="0.65"/>
</svg>
