<svg width="39" height="44" viewBox="0 0 39 44" fill="none" xmlns="http://www.w3.org/2000/svg">
<path d="M13.5 26H11.5M27.5 26H25.5" stroke="#FFFBFB" stroke-opacity="0.65" stroke-width="1.5" stroke-linecap="round" stroke-linejoin="round"/>
<path d="M19.5 2H36.3C36.6183 2 36.9235 2.12643 37.1485 2.35147C37.3736 2.57652 37.5 2.88174 37.5 3.2V40.8C37.5 41.1183 37.3736 41.4235 37.1485 41.6485C36.9235 41.8736 36.6183 42 36.3 42H19.5M19.5 2H2.7C2.38174 2 2.07652 2.12643 1.85147 2.35147C1.62643 2.57652 1.5 2.88174 1.5 3.2V40.8C1.5 41.1183 1.62643 41.4235 1.85147 41.6485C2.07652 41.8736 2.38174 42 2.7 42H19.5M19.5 2V42" stroke="#FFFBFB" stroke-opacity="0.65" stroke-width="3"/>
</svg>
