<svg width="40" height="44" viewBox="0 0 40 44" fill="none" xmlns="http://www.w3.org/2000/svg">
<path d="M20 42C10.06 42 2 36.836 2 28V27.824C2 23.588 4.676 20.2 8.75 18C12.648 15.896 14.952 12.02 14.376 8L13.25 2L17.422 3.59C24.936 6.45 31.194 11.414 35.25 17.722C37.0333 20.4622 37.9882 23.6587 38 26.928V28C38 31.124 36.992 33.79 35.25 35.93" stroke="#FFFBFB" stroke-opacity="0.65" stroke-width="3" stroke-linecap="round" stroke-linejoin="round"/>
<path d="M20 42C16.686 42 14 39.134 14 35.6C14 32.8 16.032 30.558 17.82 28.504L20 26L22.18 28.504C23.968 30.56 26 32.8 26 35.6C26 39.134 23.314 42 20 42Z" stroke="#FFFBFB" stroke-opacity="0.65" stroke-width="3" stroke-linecap="round" stroke-linejoin="round"/>
</svg>
