<svg width="18" height="18" viewBox="0 0 18 18" fill="none" xmlns="http://www.w3.org/2000/svg">
<path fill-rule="evenodd" clip-rule="evenodd" d="M9 0C4.0294 0 0 4.02945 0 9C0 13.9706 4.0294 18 9 18C13.9706 18 18 13.9706 18 9C18 4.02945 13.9706 0 9 0ZM8.06758 16.6583C6.36 16.4538 4.78007 15.6894 3.54512 14.4545C2.08808 12.9974 1.28569 11.0602 1.28569 8.99965C1.28569 7.1447 1.93629 5.38996 3.129 3.99518C3.15973 4.3637 3.23558 4.75879 3.21615 5.04121C3.14519 6.0708 3.04359 6.71517 3.64624 7.5838C3.88102 7.92212 3.9387 8.40712 4.05298 8.79871C4.16474 9.18182 4.61124 9.38276 4.91918 9.61879C5.54049 10.0951 6.13487 10.6488 6.79369 11.0681C7.2285 11.3448 7.5001 11.4824 7.37276 12.013C7.27035 12.4397 7.24174 12.7026 7.02099 13.0828C6.95362 13.1988 7.27528 13.9446 7.38233 14.0516C7.70676 14.376 8.02868 14.6736 8.38232 14.9657C8.93059 15.4187 8.32906 16.0073 8.06758 16.6583ZM14.4548 14.4546C13.3457 15.5638 11.9582 16.293 10.45 16.5783C10.6637 16.0498 11.0443 15.5801 11.3974 15.3079C11.7044 15.0709 12.0891 14.6152 12.2495 14.2542C12.4097 13.8937 12.6221 13.5811 12.8369 13.2496C13.1426 12.778 12.0832 12.0668 11.7399 11.9177C10.9674 11.5823 10.3859 11.1298 9.6993 10.6467C9.21014 10.3025 8.21703 10.8264 7.66478 10.5854C6.90839 10.2551 6.28523 9.68123 5.62775 9.1861C4.94929 8.67513 4.98209 8.07944 4.98209 7.32565C5.51352 7.34525 6.26952 7.17858 6.62234 7.60595C6.73367 7.74082 7.11648 8.34334 7.37272 8.12925C7.58205 7.95431 7.2176 7.25309 7.1472 7.08823C6.93063 6.58133 7.64064 6.38364 8.00406 6.03991C8.47829 5.59146 9.49555 4.88817 9.41515 4.56672C9.33476 4.24527 8.39729 3.33454 7.84669 3.47664C7.76417 3.49793 7.03768 4.25968 6.89732 4.37919C6.90104 4.13056 6.90476 3.88198 6.90857 3.63336C6.91095 3.47638 6.61572 3.31524 6.62944 3.21399C6.66405 2.9581 7.37635 2.49369 7.55354 2.28989C7.4294 2.21231 7.00579 1.84846 6.87759 1.90185C6.56717 2.03123 6.21661 2.12036 5.90619 2.24969C5.90619 2.14204 5.89312 2.04092 5.87755 1.94105C6.49959 1.66565 7.15775 1.47414 7.83808 1.37198L8.44748 1.61688L8.87775 2.1275L9.30715 2.57028L9.68251 2.69121L10.2787 2.12893L10.125 1.72752V1.3667C11.3041 1.53796 12.4176 1.97783 13.3928 2.65612C13.2183 2.67174 13.0266 2.6974 12.8103 2.72492C12.7209 2.67213 12.6063 2.64816 12.5089 2.61143C12.7915 3.21901 13.0862 3.8182 13.3857 4.41774C13.7056 5.05817 14.4152 5.74511 14.5398 6.42115C14.6867 7.218 14.5848 7.9418 14.6651 8.87932C14.7425 9.78213 15.683 10.8079 15.683 10.8079C15.683 10.8079 16.1173 10.9559 16.4785 10.9043C16.1418 12.2363 15.4516 13.4578 14.4548 14.4546Z" fill="#FFFBFB" fill-opacity="0.65"/>
</svg>
