<svg width="33" height="36" viewBox="0 0 33 36" fill="none" xmlns="http://www.w3.org/2000/svg">
<path d="M17.2015 1.2425C17.0881 1.12879 16.9533 1.03858 16.805 0.977027C16.6566 0.915473 16.4976 0.883789 16.337 0.883789C16.1764 0.883789 16.0174 0.915473 15.869 0.977027C15.7207 1.03858 15.586 1.12879 15.4725 1.2425L0.820643 15.8944C0.707331 16.008 0.617519 16.1428 0.556343 16.2912C0.495167 16.4395 0.463827 16.5984 0.464113 16.7589V33.8528C0.464113 34.1766 0.592753 34.4871 0.821734 34.7161C1.05071 34.9451 1.36128 35.0737 1.68511 35.0737H12.674C12.9979 35.0737 13.3084 34.9451 13.5374 34.7161C13.7664 34.4871 13.895 34.1766 13.895 33.8528V24.0848H18.779V33.8528C18.779 34.1766 18.9076 34.4871 19.1366 34.7161C19.3656 34.9451 19.6762 35.0737 20 35.0737H30.9889C31.3127 35.0737 31.6233 34.9451 31.8523 34.7161C32.0813 34.4871 32.2099 34.1766 32.2099 33.8528V16.7589C32.2102 16.5984 32.1789 16.4395 32.1177 16.2912C32.0565 16.1428 31.9667 16.008 31.8534 15.8944L28.5469 12.5904V4.54895C28.5469 4.22512 28.4183 3.91456 28.1893 3.68558C27.9603 3.4566 27.6498 3.32796 27.3259 3.32796H24.884C24.5601 3.32796 24.2496 3.4566 24.0206 3.68558C23.7916 3.91456 23.663 4.22512 23.663 4.54895V7.70643L17.2015 1.2425ZM2.9061 32.6318V17.2644L16.337 3.83345L29.7679 17.2644V32.6318H21.221V22.8638C21.221 22.54 21.0923 22.2294 20.8634 22.0005C20.6344 21.7715 20.3238 21.6428 20 21.6428H12.674C12.3502 21.6428 12.0396 21.7715 11.8107 22.0005C11.5817 22.2294 11.453 22.54 11.453 22.8638V32.6318H2.9061Z" fill="#1c1c1c"/>
</svg>
