<svg width="16" height="16" viewBox="0 0 16 16" fill="none" xmlns="http://www.w3.org/2000/svg">
<path fill-rule="evenodd" clip-rule="evenodd" d="M4.97663 0.710748C5.75863 0.674748 6.00796 0.666748 7.99996 0.666748C9.99196 0.666748 10.2413 0.675415 11.0226 0.710748C11.804 0.746081 12.3373 0.870748 12.804 1.05141C13.2926 1.23608 13.736 1.52475 14.1026 1.89808C14.476 2.26408 14.764 2.70675 14.948 3.19608C15.1293 3.66275 15.2533 4.19608 15.2893 4.97608C15.3253 5.75942 15.3333 6.00875 15.3333 8.00008C15.3333 9.99208 15.3246 10.2414 15.2893 11.0234C15.254 11.8034 15.1293 12.3367 14.948 12.8034C14.764 13.2928 14.4755 13.7362 14.1026 14.1027C13.736 14.4761 13.2926 14.7641 12.804 14.9481C12.3373 15.1294 11.804 15.2534 11.024 15.2894C10.2413 15.3254 9.99196 15.3334 7.99996 15.3334C6.00796 15.3334 5.75863 15.3247 4.97663 15.2894C4.19663 15.2541 3.66329 15.1294 3.19663 14.9481C2.70724 14.7641 2.26384 14.4756 1.89729 14.1027C1.52421 13.7365 1.2355 13.2933 1.05129 12.8041C0.870626 12.3374 0.746626 11.8041 0.710626 11.0241C0.674626 10.2407 0.666626 9.99142 0.666626 8.00008C0.666626 6.00808 0.675293 5.75875 0.710626 4.97742C0.745959 4.19608 0.870626 3.66275 1.05129 3.19608C1.23577 2.7068 1.52471 2.26362 1.89796 1.89741C2.26399 1.52442 2.70694 1.23571 3.19596 1.05141C3.66263 0.870748 4.19596 0.746748 4.97596 0.710748H4.97663ZM10.9633 2.03075C10.19 1.99541 9.95796 1.98808 7.99996 1.98808C6.04196 1.98808 5.80996 1.99541 5.03663 2.03075C4.32129 2.06341 3.93329 2.18275 3.67463 2.28341C3.33263 2.41675 3.08796 2.57475 2.83129 2.83141C2.58799 3.06812 2.40075 3.35627 2.28329 3.67475C2.18263 3.93341 2.06329 4.32141 2.03063 5.03675C1.99529 5.81008 1.98796 6.04208 1.98796 8.00008C1.98796 9.95808 1.99529 10.1901 2.03063 10.9634C2.06329 11.6787 2.18263 12.0667 2.28329 12.3254C2.40063 12.6434 2.58796 12.9321 2.83129 13.1687C3.06796 13.4121 3.35663 13.5994 3.67463 13.7167C3.93329 13.8174 4.32129 13.9367 5.03663 13.9694C5.80996 14.0047 6.04129 14.0121 7.99996 14.0121C9.95863 14.0121 10.19 14.0047 10.9633 13.9694C11.6786 13.9367 12.0666 13.8174 12.3253 13.7167C12.6673 13.5834 12.912 13.4254 13.1686 13.1687C13.412 12.9321 13.5993 12.6434 13.7166 12.3254C13.8173 12.0667 13.9366 11.6787 13.9693 10.9634C14.0046 10.1901 14.012 9.95808 14.012 8.00008C14.012 6.04208 14.0046 5.81008 13.9693 5.03675C13.9366 4.32141 13.8173 3.93341 13.7166 3.67475C13.5833 3.33275 13.4253 3.08808 13.1686 2.83141C12.9319 2.58813 12.6438 2.40089 12.3253 2.28341C12.0666 2.18275 11.6786 2.06341 10.9633 2.03075ZM7.06329 10.2607C7.5864 10.4785 8.16888 10.5079 8.71125 10.3439C9.25361 10.1799 9.72222 9.83269 10.037 9.36158C10.3518 8.89046 10.4933 8.32466 10.4373 7.76082C10.3813 7.19697 10.1313 6.67006 9.72996 6.27008C9.47412 6.0144 9.16477 5.81862 8.82418 5.69685C8.4836 5.57507 8.12025 5.53032 7.76029 5.56583C7.40033 5.60133 7.05273 5.7162 6.7425 5.90217C6.43226 6.08814 6.16712 6.34058 5.96616 6.64132C5.7652 6.94205 5.63342 7.28361 5.5803 7.64139C5.52719 7.99917 5.55406 8.36428 5.65899 8.71043C5.76391 9.05657 5.94428 9.37515 6.18711 9.64323C6.42993 9.9113 6.72918 10.1222 7.06329 10.2607ZM5.33463 5.33475C5.68464 4.98473 6.10017 4.70708 6.55749 4.51766C7.01481 4.32823 7.50496 4.23073 7.99996 4.23073C8.49496 4.23073 8.98511 4.32823 9.44243 4.51766C9.89975 4.70708 10.3153 4.98473 10.6653 5.33475C11.0153 5.68476 11.293 6.1003 11.4824 6.55761C11.6718 7.01493 11.7693 7.50508 11.7693 8.00008C11.7693 8.49508 11.6718 8.98523 11.4824 9.44255C11.293 9.89987 11.0153 10.3154 10.6653 10.6654C9.9584 11.3723 8.99965 11.7694 7.99996 11.7694C7.00027 11.7694 6.04152 11.3723 5.33463 10.6654C4.62774 9.95852 4.23061 8.99978 4.23061 8.00008C4.23061 7.00039 4.62774 6.04164 5.33463 5.33475ZM12.6053 4.79208C12.692 4.71026 12.7615 4.61187 12.8095 4.50273C12.8575 4.39359 12.8832 4.27593 12.8849 4.1567C12.8866 4.03748 12.8644 3.91911 12.8196 3.80862C12.7748 3.69813 12.7082 3.59776 12.6239 3.51344C12.5396 3.42913 12.4392 3.36259 12.3288 3.31776C12.2183 3.27293 12.0999 3.25073 11.9807 3.25247C11.8614 3.25421 11.7438 3.27985 11.6346 3.32788C11.5255 3.37591 11.4271 3.44534 11.3453 3.53208C11.1862 3.70077 11.099 3.92483 11.1024 4.1567C11.1058 4.38857 11.1994 4.61 11.3634 4.77398C11.5274 4.93795 11.7488 5.03157 11.9807 5.03495C12.2125 5.03833 12.4366 4.95121 12.6053 4.79208Z" fill="#FFFBFB" fill-opacity="0.65"/>
</svg>
