<svg width="40" height="40" viewBox="0 0 40 40" fill="none" xmlns="http://www.w3.org/2000/svg">
<g clip-path="url(#clip0_60_727)">
<path d="M17.2015 5.2425C17.0881 5.12879 16.9533 5.03858 16.805 4.97703C16.6566 4.91547 16.4976 4.88379 16.337 4.88379C16.1764 4.88379 16.0174 4.91547 15.869 4.97703C15.7207 5.03858 15.586 5.12879 15.4725 5.2425L0.820643 19.8944C0.707331 20.008 0.617519 20.1428 0.556343 20.2912C0.495167 20.4395 0.463827 20.5984 0.464113 20.7589V37.8528C0.464113 38.1766 0.592753 38.4871 0.821734 38.7161C1.05071 38.9451 1.36128 39.0737 1.68511 39.0737H12.674C12.9979 39.0737 13.3084 38.9451 13.5374 38.7161C13.7664 38.4871 13.895 38.1766 13.895 37.8528V28.0848H18.779V37.8528C18.779 38.1766 18.9076 38.4871 19.1366 38.7161C19.3656 38.9451 19.6762 39.0737 20 39.0737H30.9889C31.3127 39.0737 31.6233 38.9451 31.8523 38.7161C32.0813 38.4871 32.2099 38.1766 32.2099 37.8528V20.7589C32.2102 20.5984 32.1789 20.4395 32.1177 20.2912C32.0565 20.1428 31.9667 20.008 31.8534 19.8944L28.5469 16.5904V8.54895C28.5469 8.22512 28.4183 7.91456 28.1893 7.68558C27.9603 7.4566 27.6498 7.32796 27.3259 7.32796H24.884C24.5601 7.32796 24.2496 7.4566 24.0206 7.68558C23.7916 7.91456 23.663 8.22512 23.663 8.54895V11.7064L17.2015 5.2425ZM2.9061 36.6318V21.2644L16.337 7.83345L29.7679 21.2644V36.6318H21.221V26.8638C21.221 26.54 21.0923 26.2294 20.8634 26.0005C20.6344 25.7715 20.3238 25.6428 20 25.6428H12.674C12.3502 25.6428 12.0396 25.7715 11.8107 26.0005C11.5817 26.2294 11.453 26.54 11.453 26.8638V36.6318H2.9061Z" fill="#E6E6E6" fill-opacity="0.6"/>
<path d="M24.5273 5.2425C24.4139 5.12879 24.2791 5.03858 24.1308 4.97703C23.9824 4.91547 23.8234 4.88379 23.6628 4.88379C23.5022 4.88379 23.3432 4.91547 23.1948 4.97703C23.0465 5.03858 22.9118 5.12879 22.7984 5.2425L8.14645 19.8944C8.03314 20.008 7.94332 20.1428 7.88215 20.2912C7.82097 20.4395 7.78963 20.5984 7.78992 20.7589V37.8528C7.78992 38.1766 7.91856 38.4871 8.14754 38.7161C8.37652 38.9451 8.68708 39.0737 9.01091 39.0737H19.9998C20.3237 39.0737 20.6342 38.9451 20.8632 38.7161C21.0922 38.4871 21.2208 38.1766 21.2208 37.8528V28.0848H26.1048V37.8528C26.1048 38.1766 26.2334 38.4871 26.4624 38.7161C26.6914 38.9451 27.002 39.0737 27.3258 39.0737H38.3147C38.6385 39.0737 38.9491 38.9451 39.1781 38.7161C39.4071 38.4871 39.5357 38.1766 39.5357 37.8528V20.7589C39.536 20.5984 39.5047 20.4395 39.4435 20.2912C39.3823 20.1428 39.2925 20.008 39.1792 19.8944L35.8727 16.5904V8.54895C35.8727 8.22512 35.7441 7.91456 35.5151 7.68558C35.2861 7.4566 34.9756 7.32796 34.6517 7.32796H32.2098C31.8859 7.32796 31.5754 7.4566 31.3464 7.68558C31.1174 7.91456 30.9888 8.22512 30.9888 8.54895V11.7064L24.5273 5.2425ZM10.2319 36.6318V21.2644L23.6628 7.83345L37.0937 21.2644V36.6318H28.5468V26.8638C28.5468 26.54 28.4181 26.2294 28.1892 26.0005C27.9602 25.7715 27.6496 25.6428 27.3258 25.6428H19.9998C19.676 25.6428 19.3654 25.7715 19.1365 26.0005C18.9075 26.2294 18.7788 26.54 18.7788 26.8638V36.6318H10.2319Z" fill="#FF9505"/>
</g>
<defs>
<clipPath id="clip0_60_727">
<rect width="39.0717" height="39.0717" fill="white" transform="translate(0.464111)"/>
</clipPath>
</defs>
</svg>
