<svg width="24" height="26" viewBox="0 0 24 26" fill="none" xmlns="http://www.w3.org/2000/svg">
<path d="M19.5 17.75C18.6094 17.75 17.7875 18.0625 17.1437 18.5844L10.6687 13.9C10.7772 13.3049 10.7772 12.6951 10.6687 12.1L17.1437 7.41562C17.7875 7.9375 18.6094 8.25 19.5 8.25C21.5688 8.25 23.25 6.56875 23.25 4.5C23.25 2.43125 21.5688 0.75 19.5 0.75C17.4312 0.75 15.75 2.43125 15.75 4.5C15.75 4.8625 15.8 5.20937 15.8969 5.54062L9.74687 9.99375C8.83437 8.78437 7.38438 8 5.75 8C2.9875 8 0.75 10.2375 0.75 13C0.75 15.7625 2.9875 18 5.75 18C7.38438 18 8.83437 17.2156 9.74687 16.0063L15.8969 20.4594C15.8 20.7906 15.75 21.1406 15.75 21.5C15.75 23.5688 17.4312 25.25 19.5 25.25C21.5688 25.25 23.25 23.5688 23.25 21.5C23.25 19.4312 21.5688 17.75 19.5 17.75ZM19.5 2.875C20.3969 2.875 21.125 3.60313 21.125 4.5C21.125 5.39687 20.3969 6.125 19.5 6.125C18.6031 6.125 17.875 5.39687 17.875 4.5C17.875 3.60313 18.6031 2.875 19.5 2.875ZM5.75 15.75C4.23438 15.75 3 14.5156 3 13C3 11.4844 4.23438 10.25 5.75 10.25C7.26562 10.25 8.5 11.4844 8.5 13C8.5 14.5156 7.26562 15.75 5.75 15.75ZM19.5 23.125C18.6031 23.125 17.875 22.3969 17.875 21.5C17.875 20.6031 18.6031 19.875 19.5 19.875C20.3969 19.875 21.125 20.6031 21.125 21.5C21.125 22.3969 20.3969 23.125 19.5 23.125Z" fill="#FFFBFB"/>
</svg>
