<svg width="16" height="14" viewBox="0 0 16 14" fill="none" xmlns="http://www.w3.org/2000/svg">
<path d="M10.6938 1.47943C11.52 1.47943 12.266 1.81749 12.7915 2.36024C13.4452 2.23374 14.0615 2.00324 14.6152 1.68399C14.401 2.33451 13.9452 2.88024 13.3525 3.22549C13.9325 3.15724 14.4878 3.00824 15.003 2.78549C14.6168 3.34399 14.1305 3.83574 13.569 4.22874C13.5743 4.34799 13.5773 4.46849 13.5773 4.58848C13.5773 8.27173 10.6865 12.52 5.40052 12.52C3.77802 12.52 2.26677 12.057 0.995783 11.2665C1.22316 11.2929 1.45188 11.3061 1.68078 11.306C3.02703 11.306 4.26677 10.8607 5.25052 10.1122C3.99227 10.0907 2.93027 9.28396 2.56602 8.17721C2.74441 8.21063 2.92552 8.22745 3.10702 8.22746C3.36827 8.22746 3.62277 8.19371 3.86327 8.12971C2.54877 7.87446 1.55802 6.74771 1.55802 5.39643V5.36069C1.94577 5.56969 2.38852 5.69519 2.86027 5.70969C2.08877 5.20918 1.58152 4.3572 1.58152 3.38993C1.58152 2.87868 1.72353 2.39968 1.97078 1.98943C3.38778 3.67493 5.50528 4.78493 7.89403 4.90168C7.84477 4.69816 7.81928 4.48318 7.81928 4.26693C7.81928 2.72718 9.10602 1.47943 10.6938 1.47943ZM15.003 2.78601H15.0055H15.003ZM10.6937 0.479492C8.73022 0.479492 7.10352 1.91401 6.853 3.76751C5.2465 3.44476 3.7855 2.59426 2.73575 1.34651C2.64191 1.23488 2.52478 1.14512 2.39259 1.08354C2.26039 1.02196 2.11632 0.99004 1.97049 0.990023C1.9443 0.99003 1.91812 0.991031 1.892 0.993023C1.73349 1.00572 1.58028 1.05596 1.44504 1.1396C1.3098 1.22324 1.19641 1.33788 1.11425 1.47402C0.76562 2.05249 0.581417 2.71512 0.581486 3.39052C0.581486 3.84127 0.66247 4.28027 0.815986 4.69077C0.652486 4.87252 0.558236 5.11027 0.558236 5.36127V5.39702C0.558236 6.37654 0.945486 7.28552 1.58849 7.96677C1.55149 8.13827 1.55974 8.31777 1.61624 8.48977C1.838 9.16451 2.24175 9.74602 2.76525 10.189C2.41374 10.2673 2.051 10.3068 1.68074 10.3068C1.48499 10.3068 1.29449 10.296 1.11424 10.274C1.07424 10.269 1.03474 10.2672 0.994986 10.2672C0.574986 10.2672 0.193736 10.532 0.0522358 10.9357C-0.103014 11.3782 0.0692514 11.8687 0.467236 12.1165C1.94425 13.0355 3.65024 13.5207 5.40024 13.5207C11.0882 13.5207 14.5097 9.06799 14.5762 4.71849C15.043 4.33234 15.4553 3.88477 15.802 3.38799C15.9336 3.21513 16.0048 3.00378 16.0045 2.78649C16.0045 2.44624 15.8343 2.14549 15.575 1.96473C15.6873 1.57998 15.5592 1.16348 15.2467 0.908977C15.0642 0.760477 14.8405 0.684977 14.6155 0.684977C14.4401 0.684812 14.2678 0.73095 14.116 0.818727C13.7855 1.00924 13.432 1.15999 13.0597 1.26851C12.3862 0.761758 11.5512 0.479508 10.6937 0.479492Z" fill="#FFFBFB" fill-opacity="0.65"/>
</svg>
