<svg width="14" height="12" viewBox="0 0 14 12" fill="none" xmlns="http://www.w3.org/2000/svg">
<path d="M14 5.95615C14 5.92178 14 5.88271 13.9984 5.8374C13.9969 5.71084 13.9938 5.56865 13.9906 5.41709C13.9781 4.98115 13.9563 4.54678 13.9219 4.1374C13.875 3.57334 13.8062 3.10303 13.7125 2.7499C13.6136 2.38139 13.4196 2.04529 13.1501 1.77521C12.8806 1.50513 12.5449 1.31052 12.1766 1.21084C11.7344 1.09209 10.8687 1.01865 9.65 0.97334C9.07031 0.951465 8.45 0.937402 7.82969 0.92959C7.6125 0.926465 7.41094 0.924902 7.22969 0.92334H6.77031C6.58906 0.924902 6.3875 0.926465 6.17031 0.92959C5.55 0.937402 4.92969 0.951465 4.35 0.97334C3.13125 1.02021 2.26406 1.09365 1.82344 1.21084C1.455 1.31028 1.11917 1.5048 0.8496 1.77492C0.580029 2.04504 0.386188 2.38126 0.2875 2.7499C0.192188 3.10303 0.125 3.57334 0.078125 4.1374C0.04375 4.54678 0.021875 4.98115 0.00937498 5.41709C0.00468748 5.56865 0.00312498 5.71084 0.00156248 5.8374C0.00156248 5.88271 0 5.92178 0 5.95615V6.04365C0 6.07803 -2.38651e-08 6.11709 0.00156248 6.1624C0.00312498 6.28897 0.00624998 6.43115 0.00937498 6.58271C0.021875 7.01865 0.04375 7.45303 0.078125 7.8624C0.125 8.42647 0.19375 8.89678 0.2875 9.2499C0.4875 9.99834 1.075 10.589 1.82344 10.789C2.26406 10.9077 3.13125 10.9812 4.35 11.0265C4.92969 11.0483 5.55 11.0624 6.17031 11.0702C6.3875 11.0733 6.58906 11.0749 6.77031 11.0765H7.22969C7.41094 11.0749 7.6125 11.0733 7.82969 11.0702C8.45 11.0624 9.07031 11.0483 9.65 11.0265C10.8687 10.9796 11.7359 10.9062 12.1766 10.789C12.925 10.589 13.5125 9.9999 13.7125 9.2499C13.8078 8.89678 13.875 8.42647 13.9219 7.8624C13.9563 7.45303 13.9781 7.01865 13.9906 6.58271C13.9953 6.43115 13.9969 6.28897 13.9984 6.1624C13.9984 6.11709 14 6.07803 14 6.04365V5.95615ZM12.875 6.0374C12.875 6.07022 12.875 6.10615 12.8734 6.14834C12.8719 6.27021 12.8688 6.40459 12.8656 6.5499C12.8547 6.96553 12.8328 7.38115 12.8 7.76709C12.7578 8.27021 12.6984 8.68272 12.625 8.95928C12.5281 9.32022 12.2437 9.60615 11.8844 9.70147C11.5562 9.78897 10.7297 9.85928 9.60625 9.90146C9.0375 9.92334 8.425 9.9374 7.81406 9.94522C7.6 9.94834 7.40156 9.9499 7.22344 9.9499H6.77656L6.18594 9.94522C5.575 9.9374 4.96406 9.92334 4.39375 9.90146C3.27031 9.85771 2.44219 9.78897 2.11562 9.70147C1.75625 9.60459 1.47187 9.32022 1.375 8.95928C1.30156 8.68272 1.24219 8.27021 1.2 7.76709C1.16719 7.38115 1.14688 6.96553 1.13438 6.5499C1.12969 6.40459 1.12813 6.26865 1.12656 6.14834C1.12656 6.10615 1.125 6.06865 1.125 6.0374V5.9624C1.125 5.92959 1.125 5.89365 1.12656 5.85146C1.12813 5.72959 1.13125 5.59521 1.13438 5.4499C1.14531 5.03428 1.16719 4.61865 1.2 4.23271C1.24219 3.72959 1.30156 3.31709 1.375 3.04053C1.47187 2.67959 1.75625 2.39365 2.11562 2.29834C2.44375 2.21084 3.27031 2.14053 4.39375 2.09834C4.9625 2.07646 5.575 2.0624 6.18594 2.05459C6.4 2.05146 6.59844 2.0499 6.77656 2.0499H7.22344L7.81406 2.05459C8.425 2.0624 9.03594 2.07646 9.60625 2.09834C10.7297 2.14209 11.5578 2.21084 11.8844 2.29834C12.2437 2.39521 12.5281 2.67959 12.625 3.04053C12.6984 3.31709 12.7578 3.72959 12.8 4.23271C12.8328 4.61865 12.8531 5.03428 12.8656 5.4499C12.8703 5.59521 12.8719 5.73115 12.8734 5.85146C12.8734 5.89365 12.875 5.93115 12.875 5.9624V6.0374ZM5.60938 8.09365L9.23438 5.98428L5.60938 3.90615V8.09365Z" fill="#FFFBFB" fill-opacity="0.65"/>
</svg>
